<?xml version="1.0" encoding="UTF-8" standalone="no"?>
<svg
   xmlns:dc="http://purl.org/dc/elements/1.1/"
   xmlns:cc="http://creativecommons.org/ns#"
   xmlns:rdf="http://www.w3.org/1999/02/22-rdf-syntax-ns#"
   xmlns:svg="http://www.w3.org/2000/svg"
   xmlns="http://www.w3.org/2000/svg"
   viewBox="0 0 765 990"
   height="990"
   width="765"
   xml:space="preserve"
   version="1.1"
   id="svg2"><metadata
     id="metadata8"><rdf:RDF><cc:Work
         rdf:about=""><dc:format>image/svg+xml</dc:format><dc:type
           rdf:resource="http://purl.org/dc/dcmitype/StillImage" /></cc:Work></rdf:RDF></metadata><defs
     id="defs6"><clipPath
       id="clipPath16"
       clipPathUnits="userSpaceOnUse"><path
         style="clip-rule:evenodd"
         id="path18"
         d="M 9.12e-6,0 612.00001,0 l 0,792 -612.00000088,0 0,-792 z" /></clipPath></defs><g
     transform="matrix(1.25,0,0,-1.25,0,990)"
     id="g10"><g
       id="g12"><g
         clip-path="url(#clipPath16)"
         id="g14" /></g><path
       id="path20"
       style="fill:#e7e6e6;fill-opacity:1;fill-rule:evenodd;stroke:none"
       d="m 310.02,680.73 0,-7.09 c 0.67,0.03 1.12,0.16 1.33,0.38 0.22,0.21 0.32,0.84 0.32,1.87 l 0,2.59 c 0,1.09 -0.09,1.73 -0.28,1.92 -0.19,0.19 -0.64,0.3 -1.37,0.33 z m -66.96,0 0,-7.09 c 0.67,0.03 1.12,0.16 1.33,0.38 0.22,0.21 0.32,0.84 0.32,1.87 l 0,2.59 c 0,1.09 -0.09,1.73 -0.28,1.92 -0.19,0.19 -0.64,0.3 -1.37,0.33 z m -123.85,9.11 c -0.42,-5.16 -0.73,-8.83 -0.93,-11.03 l 1.76,0 c -0.35,2.89 -0.63,6.57 -0.83,11.03 z m 190.81,1.44 0,-5.51 c 0.15,0.01 0.27,0.02 0.36,0.02 0.57,0 0.93,0.13 1.07,0.4 0.15,0.26 0.22,1.19 0.22,2.78 0,0.82 -0.06,1.37 -0.19,1.65 -0.13,0.29 -0.3,0.46 -0.49,0.53 -0.2,0.07 -0.52,0.11 -0.97,0.13 z m -66.96,0 0,-5.51 c 0.15,0.01 0.27,0.02 0.36,0.02 0.57,0 0.93,0.13 1.07,0.4 0.15,0.26 0.22,1.19 0.22,2.78 0,0.82 -0.06,1.37 -0.19,1.65 -0.13,0.29 -0.3,0.46 -0.49,0.53 -0.2,0.07 -0.52,0.11 -0.97,0.13 z m -142.44,0 0,-6.4 0.17,0 c 0.55,0 0.93,0.12 1.13,0.37 0.2,0.25 0.3,0.85 0.3,1.8 l 0,2.29 c 0,0.85 -0.11,1.38 -0.35,1.6 -0.23,0.22 -0.65,0.34 -1.25,0.34 z m 163.44,0.65 c -0.25,0 -0.44,-0.11 -0.58,-0.32 -0.14,-0.2 -0.21,-0.99 -0.21,-2.36 l 0,-13.02 c 0,-1.6 0.05,-2.53 0.14,-2.8 0.1,-0.28 0.3,-0.42 0.6,-0.42 0.31,0 0.52,0.17 0.63,0.52 0.1,0.34 0.16,1.31 0.16,2.9 l 0,12.82 c 0,1.24 -0.06,2 -0.16,2.27 -0.11,0.27 -0.3,0.41 -0.58,0.41 z m 37.98,4.83 7.59,0 c 2.32,0 4.1,-0.19 5.34,-0.56 1.24,-0.38 2.24,-1.14 3.01,-2.29 0.76,-1.16 1.15,-2.97 1.15,-5.45 0,-1.71 -0.28,-2.92 -0.85,-3.63 -0.56,-0.71 -1.54,-1.13 -2.94,-1.26 1.58,-0.18 2.7,-0.74 3.34,-1.69 0.65,-0.95 0.97,-2.36 0.97,-4.24 l 0,-2.58 c 0,-1.93 -0.23,-3.39 -0.69,-4.36 -0.47,-0.98 -1.2,-1.65 -2.21,-2.01 -1.01,-0.35 -2.99,-0.53 -5.96,-0.53 l -8.75,0 0,28.6 z m -26.28,0 10.07,0 c 0.29,-1.84 0.59,-3.89 0.89,-6.15 l 0.65,-6.88 1.37,13.03 10.14,0 0,-28.6 -7.07,0 -0.01,18.83 -1.85,-18.83 -5.13,0 -1.99,18.41 0,-18.41 -7.07,0 0,28.6 z m -40.68,0 7.59,0 c 2.32,0 4.1,-0.19 5.34,-0.56 1.24,-0.38 2.24,-1.14 3.01,-2.29 0.76,-1.16 1.15,-2.97 1.15,-5.45 0,-1.71 -0.28,-2.92 -0.85,-3.63 -0.56,-0.71 -1.54,-1.13 -2.94,-1.26 1.58,-0.18 2.7,-0.74 3.34,-1.69 0.65,-0.95 0.97,-2.36 0.97,-4.24 l 0,-2.58 c 0,-1.93 -0.23,-3.39 -0.69,-4.36 -0.47,-0.98 -1.2,-1.65 -2.21,-2.01 -1.01,-0.35 -2.99,-0.53 -5.96,-0.53 l -8.75,0 0,28.6 z m -22.32,0 12.83,0 0,-6.29 -4.85,0 0,-4.59 4.54,0 0,-6.01 -4.54,0 0,-5.42 5.33,0 0,-6.29 -13.31,0 0,28.6 z m -20.52,0 7.98,0 0,-9.97 1.46,0 0,9.97 7.98,0 0,-28.6 -7.98,0 0,11.72 -1.46,0 0,-11.72 -7.98,0 0,28.6 z m -18.27,0 16.58,0 0,-6.29 -4.31,0 0,-22.31 -7.98,0 0,22.31 -4.29,0 0,6.29 z m -60.52,0 11.11,0 4.2,-28.6 -8.11,0 -0.38,5.01 -1.95,0 -0.42,-5.01 -8.19,0 3.74,28.6 z m -20.809,0 7.669,0 c 2,0 3.56,-0.16 4.68,-0.49 1.12,-0.33 1.97,-0.81 2.55,-1.44 0.58,-0.63 0.97,-1.39 1.17,-2.26 0.2,-0.88 0.3,-2.2 0.3,-3.97 l 0,-2.43 c 0,-1.83 -0.2,-3.18 -0.6,-4.06 -0.4,-0.88 -1.12,-1.55 -2.17,-2.02 -1.05,-0.46 -2.4,-0.7 -4.04,-0.7 l -1.58,0 0,-11.23 -7.979,0 0,28.6 z m 171.379,0.6 c 1.54,0 2.94,-0.26 4.18,-0.77 1.24,-0.51 2.25,-1.28 3.01,-2.31 0.76,-1.03 1.21,-2.14 1.35,-3.33 0.15,-1.2 0.22,-3.23 0.22,-6.09 l 0,-4.78 c 0,-2.8 -0.07,-4.8 -0.21,-6.01 -0.13,-1.21 -0.57,-2.33 -1.3,-3.34 -0.73,-1.02 -1.72,-1.8 -2.95,-2.34 -1.24,-0.54 -2.67,-0.81 -4.3,-0.81 -1.54,0 -2.94,0.25 -4.17,0.76 -1.24,0.51 -2.24,1.28 -3,2.3 -0.76,1.03 -1.21,2.14 -1.35,3.32 -0.14,1.18 -0.21,3.22 -0.21,6.12 l 0,4.78 c 0,2.82 0.07,4.84 0.2,6.03 0.14,1.2 0.57,2.3 1.3,3.32 0.73,1.02 1.72,1.8 2.95,2.34 1.24,0.54 2.67,0.81 4.28,0.81 z m -107.23,0 c 1.94,0 3.61,-0.32 5,-0.96 1.4,-0.64 2.32,-1.46 2.78,-2.44 0.46,-0.99 0.69,-2.62 0.69,-4.89 l 0,-1.45 -7.45,0 0,2.42 c 0,0.89 -0.06,1.42 -0.18,1.61 -0.12,0.18 -0.32,0.28 -0.59,0.28 -0.3,0 -0.54,-0.14 -0.71,-0.41 -0.17,-0.27 -0.26,-0.74 -0.26,-1.39 0,-0.87 0.09,-1.48 0.27,-1.81 0.26,-0.5 0.74,-1.04 1.45,-1.64 3.63,-2 5.88,-3.62 6.74,-4.89 0.89,-1.29 1.33,-3.34 1.33,-6.14 0,-2.04 -0.25,-3.56 -0.74,-4.56 -0.5,-1 -1.44,-1.84 -2.84,-2.51 -1.4,-0.67 -3.01,-1 -4.83,-1 -2.01,0 -3.73,0.38 -5.16,1.15 -1.44,0.77 -2.38,1.75 -2.83,2.95 -0.44,1.2 -0.67,2.87 -0.67,5.01 l 0,2.18 7.46,0 0,-3.75 c 0,-0.98 0.06,-1.58 0.2,-1.79 0.13,-0.21 0.37,-0.32 0.72,-0.32 0.35,0 0.62,0.15 0.8,0.44 0.19,0.3 0.28,0.79 0.28,1.46 0,1.55 -0.13,2.51 -0.39,2.87 -0.57,0.56 -1.75,1.42 -3.53,2.59 -1.82,1.21 -3.03,2.1 -3.64,2.66 -0.61,0.56 -1.12,1.34 -1.52,2.34 -0.4,1 -0.61,2.26 -0.61,3.8 0,2.2 0.29,3.82 0.87,4.87 0.58,1.04 1.51,1.86 2.78,2.44 1.28,0.59 2.81,0.88 4.58,0.88 z m -19.08,0 c 1.94,0 3.61,-0.32 5,-0.96 1.4,-0.64 2.32,-1.46 2.78,-2.44 0.46,-0.99 0.69,-2.62 0.69,-4.89 l 0,-1.45 -7.45,0 0,2.42 c 0,0.89 -0.06,1.42 -0.18,1.61 -0.12,0.18 -0.32,0.28 -0.59,0.28 -0.3,0 -0.54,-0.14 -0.71,-0.41 -0.17,-0.27 -0.26,-0.74 -0.26,-1.39 0,-0.87 0.09,-1.48 0.27,-1.81 0.26,-0.5 0.74,-1.04 1.45,-1.64 3.63,-2 5.88,-3.62 6.74,-4.89 0.89,-1.29 1.33,-3.34 1.33,-6.14 0,-2.04 -0.25,-3.56 -0.74,-4.56 -0.5,-1 -1.44,-1.84 -2.84,-2.51 -1.4,-0.67 -3.01,-1 -4.83,-1 -2.01,0 -3.73,0.38 -5.16,1.15 -1.44,0.77 -2.38,1.75 -2.83,2.95 -0.44,1.2 -0.67,2.87 -0.67,5.01 l 0,2.18 7.46,0 0,-3.75 c 0,-0.98 0.06,-1.58 0.2,-1.79 0.13,-0.21 0.37,-0.32 0.72,-0.32 0.35,0 0.62,0.15 0.8,0.44 0.19,0.3 0.28,0.79 0.28,1.46 0,1.55 -0.13,2.51 -0.39,2.87 -0.57,0.56 -1.75,1.42 -3.53,2.59 -1.82,1.21 -3.03,2.1 -3.64,2.66 -0.61,0.56 -1.12,1.34 -1.52,2.34 -0.4,1 -0.61,2.26 -0.61,3.8 0,2.2 0.29,3.82 0.87,4.87 0.58,1.04 1.51,1.86 2.78,2.44 1.28,0.59 2.81,0.88 4.58,0.88 z m 185.1,-22.91 7.24,0 0,-6.29 -7.24,0 0,6.29 z m -0.56,22.31 8.37,0 -1.16,-21.69 -6.06,0 -1.15,21.69 z" /><path
       id="path22"
       style="fill:none;stroke:#000000;stroke-width:0.75;stroke-linecap:butt;stroke-linejoin:round;stroke-miterlimit:10;stroke-dasharray:none;stroke-opacity:1"
       d="m 310.02,680.73 0,-7.09 c 0.67,0.03 1.12,0.16 1.33,0.38 0.22,0.21 0.32,0.84 0.32,1.87 l 0,2.59 c 0,1.09 -0.09,1.73 -0.28,1.92 -0.19,0.19 -0.64,0.3 -1.37,0.33 z m -66.96,0 0,-7.09 c 0.67,0.03 1.12,0.16 1.33,0.38 0.22,0.21 0.32,0.84 0.32,1.87 l 0,2.59 c 0,1.09 -0.09,1.73 -0.28,1.92 -0.19,0.19 -0.64,0.3 -1.37,0.33 z m -123.85,9.11 c -0.42,-5.16 -0.73,-8.83 -0.93,-11.03 l 1.76,0 c -0.35,2.89 -0.63,6.57 -0.83,11.03 z m 190.81,1.44 0,-5.51 c 0.15,0.01 0.27,0.02 0.36,0.02 0.57,0 0.93,0.13 1.07,0.4 0.15,0.26 0.22,1.19 0.22,2.78 0,0.82 -0.06,1.37 -0.19,1.65 -0.13,0.29 -0.3,0.46 -0.49,0.53 -0.2,0.07 -0.52,0.11 -0.97,0.13 z m -66.96,0 0,-5.51 c 0.15,0.01 0.27,0.02 0.36,0.02 0.57,0 0.93,0.13 1.07,0.4 0.15,0.26 0.22,1.19 0.22,2.78 0,0.82 -0.06,1.37 -0.19,1.65 -0.13,0.29 -0.3,0.46 -0.49,0.53 -0.2,0.07 -0.52,0.11 -0.97,0.13 z m -142.44,0 0,-6.4 0.17,0 c 0.55,0 0.93,0.12 1.13,0.37 0.2,0.25 0.3,0.85 0.3,1.8 l 0,2.29 c 0,0.85 -0.11,1.38 -0.35,1.6 -0.23,0.22 -0.65,0.34 -1.25,0.34 z m 163.44,0.65 c -0.25,0 -0.44,-0.11 -0.58,-0.32 -0.14,-0.2 -0.21,-0.99 -0.21,-2.36 l 0,-13.02 c 0,-1.6 0.05,-2.53 0.14,-2.8 0.1,-0.28 0.3,-0.42 0.6,-0.42 0.31,0 0.52,0.17 0.63,0.52 0.1,0.34 0.16,1.31 0.16,2.9 l 0,12.82 c 0,1.24 -0.06,2 -0.16,2.27 -0.11,0.27 -0.3,0.41 -0.58,0.41 z m 37.98,4.83 7.59,0 c 2.32,0 4.1,-0.19 5.34,-0.56 1.24,-0.38 2.24,-1.14 3.01,-2.29 0.76,-1.16 1.15,-2.97 1.15,-5.45 0,-1.71 -0.28,-2.92 -0.85,-3.63 -0.56,-0.71 -1.54,-1.13 -2.94,-1.26 1.58,-0.18 2.7,-0.74 3.34,-1.69 0.65,-0.95 0.97,-2.36 0.97,-4.24 l 0,-2.58 c 0,-1.93 -0.23,-3.39 -0.69,-4.36 -0.47,-0.98 -1.2,-1.65 -2.21,-2.01 -1.01,-0.35 -2.99,-0.53 -5.96,-0.53 l -8.75,0 0,28.6 z m -26.28,0 10.07,0 c 0.29,-1.84 0.59,-3.89 0.89,-6.15 l 0.65,-6.88 1.37,13.03 10.14,0 0,-28.6 -7.07,0 -0.01,18.83 -1.85,-18.83 -5.13,0 -1.99,18.41 0,-18.41 -7.07,0 0,28.6 z m -40.68,0 7.59,0 c 2.32,0 4.1,-0.19 5.34,-0.56 1.24,-0.38 2.24,-1.14 3.01,-2.29 0.76,-1.16 1.15,-2.97 1.15,-5.45 0,-1.71 -0.28,-2.92 -0.85,-3.63 -0.56,-0.71 -1.54,-1.13 -2.94,-1.26 1.58,-0.18 2.7,-0.74 3.34,-1.69 0.65,-0.95 0.97,-2.36 0.97,-4.24 l 0,-2.58 c 0,-1.93 -0.23,-3.39 -0.69,-4.36 -0.47,-0.98 -1.2,-1.65 -2.21,-2.01 -1.01,-0.35 -2.99,-0.53 -5.96,-0.53 l -8.75,0 0,28.6 z m -22.32,0 12.83,0 0,-6.29 -4.85,0 0,-4.59 4.54,0 0,-6.01 -4.54,0 0,-5.42 5.33,0 0,-6.29 -13.31,0 0,28.6 z m -20.52,0 7.98,0 0,-9.97 1.46,0 0,9.97 7.98,0 0,-28.6 -7.98,0 0,11.72 -1.46,0 0,-11.72 -7.98,0 0,28.6 z m -18.27,0 16.58,0 0,-6.29 -4.31,0 0,-22.31 -7.98,0 0,22.31 -4.29,0 0,6.29 z m -60.52,0 11.11,0 4.2,-28.6 -8.11,0 -0.38,5.01 -1.95,0 -0.42,-5.01 -8.19,0 3.74,28.6 z m -20.809,0 7.669,0 c 2,0 3.56,-0.16 4.68,-0.49 1.12,-0.33 1.97,-0.81 2.55,-1.44 0.58,-0.63 0.97,-1.39 1.17,-2.26 0.2,-0.88 0.3,-2.2 0.3,-3.97 l 0,-2.43 c 0,-1.83 -0.2,-3.18 -0.6,-4.06 -0.4,-0.88 -1.12,-1.55 -2.17,-2.02 -1.05,-0.46 -2.4,-0.7 -4.04,-0.7 l -1.58,0 0,-11.23 -7.979,0 0,28.6 z m 171.379,0.6 c 1.54,0 2.94,-0.26 4.18,-0.77 1.24,-0.51 2.25,-1.28 3.01,-2.31 0.76,-1.03 1.21,-2.14 1.35,-3.33 0.15,-1.2 0.22,-3.23 0.22,-6.09 l 0,-4.78 c 0,-2.8 -0.07,-4.8 -0.21,-6.01 -0.13,-1.21 -0.57,-2.33 -1.3,-3.34 -0.73,-1.02 -1.72,-1.8 -2.95,-2.34 -1.24,-0.54 -2.67,-0.81 -4.3,-0.81 -1.54,0 -2.94,0.25 -4.17,0.76 -1.24,0.51 -2.24,1.28 -3,2.3 -0.76,1.03 -1.21,2.14 -1.35,3.32 -0.14,1.18 -0.21,3.22 -0.21,6.12 l 0,4.78 c 0,2.82 0.07,4.84 0.2,6.03 0.14,1.2 0.57,2.3 1.3,3.32 0.73,1.02 1.72,1.8 2.95,2.34 1.24,0.54 2.67,0.81 4.28,0.81 z m -107.23,0 c 1.94,0 3.61,-0.32 5,-0.96 1.4,-0.64 2.32,-1.46 2.78,-2.44 0.46,-0.99 0.69,-2.62 0.69,-4.89 l 0,-1.45 -7.45,0 0,2.42 c 0,0.89 -0.06,1.42 -0.18,1.61 -0.12,0.18 -0.32,0.28 -0.59,0.28 -0.3,0 -0.54,-0.14 -0.71,-0.41 -0.17,-0.27 -0.26,-0.74 -0.26,-1.39 0,-0.87 0.09,-1.48 0.27,-1.81 0.26,-0.5 0.74,-1.04 1.45,-1.64 3.63,-2 5.88,-3.62 6.74,-4.89 0.89,-1.29 1.33,-3.34 1.33,-6.14 0,-2.04 -0.25,-3.56 -0.74,-4.56 -0.5,-1 -1.44,-1.84 -2.84,-2.51 -1.4,-0.67 -3.01,-1 -4.83,-1 -2.01,0 -3.73,0.38 -5.16,1.15 -1.44,0.77 -2.38,1.75 -2.83,2.95 -0.44,1.2 -0.67,2.87 -0.67,5.01 l 0,2.18 7.46,0 0,-3.75 c 0,-0.98 0.06,-1.58 0.2,-1.79 0.13,-0.21 0.37,-0.32 0.72,-0.32 0.35,0 0.62,0.15 0.8,0.44 0.19,0.3 0.28,0.79 0.28,1.46 0,1.55 -0.13,2.51 -0.39,2.87 -0.57,0.56 -1.75,1.42 -3.53,2.59 -1.82,1.21 -3.03,2.1 -3.64,2.66 -0.61,0.56 -1.12,1.34 -1.52,2.34 -0.4,1 -0.61,2.26 -0.61,3.8 0,2.2 0.29,3.82 0.87,4.87 0.58,1.04 1.51,1.86 2.78,2.44 1.28,0.59 2.81,0.88 4.58,0.88 z m -19.08,0 c 1.94,0 3.61,-0.32 5,-0.96 1.4,-0.64 2.32,-1.46 2.78,-2.44 0.46,-0.99 0.69,-2.62 0.69,-4.89 l 0,-1.45 -7.45,0 0,2.42 c 0,0.89 -0.06,1.42 -0.18,1.61 -0.12,0.18 -0.32,0.28 -0.59,0.28 -0.3,0 -0.54,-0.14 -0.71,-0.41 -0.17,-0.27 -0.26,-0.74 -0.26,-1.39 0,-0.87 0.09,-1.48 0.27,-1.81 0.26,-0.5 0.74,-1.04 1.45,-1.64 3.63,-2 5.88,-3.62 6.74,-4.89 0.89,-1.29 1.33,-3.34 1.33,-6.14 0,-2.04 -0.25,-3.56 -0.74,-4.56 -0.5,-1 -1.44,-1.84 -2.84,-2.51 -1.4,-0.67 -3.01,-1 -4.83,-1 -2.01,0 -3.73,0.38 -5.16,1.15 -1.44,0.77 -2.38,1.75 -2.83,2.95 -0.44,1.2 -0.67,2.87 -0.67,5.01 l 0,2.18 7.46,0 0,-3.75 c 0,-0.98 0.06,-1.58 0.2,-1.79 0.13,-0.21 0.37,-0.32 0.72,-0.32 0.35,0 0.62,0.15 0.8,0.44 0.19,0.3 0.28,0.79 0.28,1.46 0,1.55 -0.13,2.51 -0.39,2.87 -0.57,0.56 -1.75,1.42 -3.53,2.59 -1.82,1.21 -3.03,2.1 -3.64,2.66 -0.61,0.56 -1.12,1.34 -1.52,2.34 -0.4,1 -0.61,2.26 -0.61,3.8 0,2.2 0.29,3.82 0.87,4.87 0.58,1.04 1.51,1.86 2.78,2.44 1.28,0.59 2.81,0.88 4.58,0.88 z m 185.1,-22.91 7.24,0 0,-6.29 -7.24,0 0,6.29 z m -0.56,22.31 8.37,0 -1.16,-21.69 -6.06,0 -1.15,21.69 z" /></g></svg>